<svg width="156" height="32" viewBox="0 0 156 32" fill="none" xmlns="http://www.w3.org/2000/svg">
<path d="M2 12.8627C2 12.3444 2.43129 11.9243 2.96331 11.9243H31.2204C31.7524 11.9243 32.1837 12.3444 32.1837 12.8627V16.0656C32.1837 16.5838 31.7524 17.004 31.2204 17.004H5.42334H2.96331C2.43129 17.004 2 16.584 2 16.0656V12.8627Z" stroke="#45BA66" stroke-width="3"/>
<path d="M9.19348 2.04077H10.0854C13.4549 2.04077 16.1863 4.70145 16.1863 7.98356V8.85238H14.01C11.3499 8.85238 9.19348 6.75185 9.19348 4.16071V2.04077Z" stroke="#45BA66" stroke-width="3"/>
<path d="M25.1048 2.04077H24.2128C20.8434 2.04077 18.1118 4.70145 18.1118 7.98356V8.85238H20.2883C22.9484 8.85238 25.1048 6.75185 25.1048 4.16071V2.04077Z" stroke="#45BA66" stroke-width="3"/>
<path d="M25.7674 29.315H8.41735L6.52332 17.0541H27.6614L25.7674 29.315Z" stroke="#45BA66" stroke-width="3" stroke-linecap="round"/>
<path d="M56.172 10.78C56.1533 11.3213 56.0693 11.844 55.92 12.348H56.228C57.3853 12.348 58.5147 12.5067 59.616 12.824C60.736 13.1227 61.744 13.608 62.64 14.28C63.536 14.9333 64.2733 15.7827 64.852 16.828C65.4493 17.8733 65.7947 19.124 65.888 20.58H60.372C60.2413 19.8707 59.9893 19.2547 59.616 18.732C59.2427 18.2093 58.7853 17.78 58.244 17.444C57.7027 17.0893 57.0773 16.828 56.368 16.66C55.6773 16.492 54.94 16.408 54.156 16.408C53.9507 16.408 53.736 16.436 53.512 16.492C52.896 17.1267 52.196 17.6867 51.412 18.172C50.6467 18.6573 49.844 19.068 49.004 19.404C48.164 19.74 47.3053 20.0107 46.428 20.216C45.5507 20.4027 44.6827 20.524 43.824 20.58C43.04 20.636 42.368 20.4773 41.808 20.104C41.2667 19.712 40.9493 19.1893 40.856 18.536C40.7627 17.92 40.884 17.36 41.22 16.856C41.556 16.352 42.0693 16.0627 42.76 15.988C43.7493 15.8947 44.6827 15.7173 45.56 15.456C46.4373 15.1947 47.212 14.8587 47.884 14.448C48.5747 14.0187 49.144 13.5053 49.592 12.908C50.04 12.292 50.3293 11.5827 50.46 10.78H43.712C42.872 10.78 42.2653 10.5467 41.892 10.08C41.5373 9.59467 41.36 9.06267 41.36 8.484C41.36 8.204 41.3973 7.93333 41.472 7.672C41.5653 7.392 41.7053 7.14 41.892 6.916C42.0787 6.692 42.3213 6.51467 42.62 6.384C42.9187 6.25333 43.2827 6.188 43.712 6.188H50.404C50.4413 5.348 50.7213 4.71333 51.244 4.284C51.7853 3.836 52.504 3.612 53.4 3.612C54.2773 3.612 54.9867 3.836 55.528 4.284C56.0693 4.732 56.3587 5.36667 56.396 6.188H63.088C63.5173 6.188 63.8813 6.25333 64.18 6.384C64.4787 6.51467 64.7213 6.692 64.908 6.916C65.0947 7.14 65.2253 7.392 65.3 7.672C65.3933 7.93333 65.44 8.204 65.44 8.484C65.44 9.06267 65.2533 9.59467 64.88 10.08C64.5253 10.5467 63.928 10.78 63.088 10.78H56.172ZM50.46 25.032V21.98C50.46 21.532 50.5347 21.14 50.684 20.804C50.852 20.4493 51.0667 20.16 51.328 19.936C51.608 19.6933 51.916 19.516 52.252 19.404C52.6067 19.292 52.98 19.236 53.372 19.236C53.7453 19.236 54.1093 19.3013 54.464 19.432C54.8187 19.544 55.1267 19.712 55.388 19.936C55.668 20.16 55.8827 20.4493 56.032 20.804C56.2 21.14 56.284 21.532 56.284 21.98V25.032H64.152C64.5813 25.032 64.9453 25.0973 65.244 25.228C65.5427 25.3587 65.7853 25.536 65.972 25.76C66.1587 25.9653 66.2893 26.208 66.364 26.488C66.4573 26.7493 66.504 27.02 66.504 27.3C66.504 27.8787 66.3173 28.4013 65.944 28.868C65.5893 29.3347 64.992 29.568 64.152 29.568H42.648C41.808 29.568 41.2013 29.3347 40.828 28.868C40.4733 28.4013 40.296 27.8787 40.296 27.3C40.296 27.02 40.3333 26.7493 40.408 26.488C40.5013 26.208 40.6413 25.9653 40.828 25.76C41.0147 25.536 41.2573 25.3587 41.556 25.228C41.8547 25.0973 42.2187 25.032 42.648 25.032H50.46ZM79.888 16.576V15.4H74.428C73.812 15.4 73.2707 15.3067 72.804 15.12C72.356 14.9333 71.9733 14.6813 71.656 14.364C71.3573 14.028 71.124 13.6453 70.956 13.216C70.8067 12.768 70.732 12.3013 70.732 11.816V11.648C70.732 10.6213 71.04 9.80933 71.656 9.212C72.272 8.61467 73.196 8.316 74.428 8.316H88.708V7.84C88.708 7.672 88.6707 7.55067 88.596 7.476C88.5213 7.40133 88.3813 7.364 88.176 7.364H72.468C71.9453 7.364 71.5533 7.196 71.292 6.86C71.0307 6.50533 70.9 6.14133 70.9 5.768C70.9 5.39467 71.0213 5.03067 71.264 4.676C71.5067 4.32133 71.908 4.144 72.468 4.144H91.284C92.4973 4.144 93.328 4.37733 93.776 4.844C94.2427 5.292 94.476 5.94533 94.476 6.804V11.2H77.256C77.0507 11.2 76.9107 11.2467 76.836 11.34C76.7613 11.4333 76.724 11.5453 76.724 11.676C76.724 11.9933 76.9013 12.152 77.256 12.152H93.552C94.112 12.152 94.504 12.3293 94.728 12.684C94.9707 13.0387 95.092 13.412 95.092 13.804C95.092 14.1587 94.98 14.5133 94.756 14.868C94.532 15.2227 94.1307 15.4 93.552 15.4H85.6V16.576H93.608C94.448 16.576 95.036 16.7813 95.372 17.192C95.7267 17.584 95.904 18.06 95.904 18.62C95.904 19.18 95.7267 19.6653 95.372 20.076C95.036 20.468 94.448 20.664 93.608 20.664H71.992C71.152 20.664 70.5547 20.468 70.2 20.076C69.864 19.6653 69.696 19.18 69.696 18.62C69.696 18.06 69.864 17.584 70.2 17.192C70.5547 16.7813 71.152 16.576 71.992 16.576H79.888ZM73.14 25.76C72.3747 25.76 71.7867 25.5733 71.376 25.2C70.984 24.8267 70.788 24.3413 70.788 23.744C70.788 23.1467 70.984 22.6707 71.376 22.316C71.7867 21.9613 72.3747 21.784 73.14 21.784H90.724C91.564 21.784 92.2453 21.84 92.768 21.952C93.2907 22.064 93.692 22.2787 93.972 22.596C94.2707 22.8947 94.4667 23.3053 94.56 23.828C94.672 24.3507 94.728 25.0133 94.728 25.816V30.128H89.128V26.376C89.128 25.9653 88.9227 25.76 88.512 25.76H73.14ZM110.492 11.004V11.396C110.492 11.8813 110.464 12.3293 110.408 12.74C112.555 12.7773 114.151 13.3747 115.196 14.532C116.241 15.6707 116.755 17.4907 116.736 19.992H111.5C111.575 18.8533 111.36 17.9947 110.856 17.416C110.371 16.8373 109.727 16.5667 108.924 16.604C108.495 17.1827 108.009 17.696 107.468 18.144C106.927 18.5733 106.339 18.9373 105.704 19.236C105.088 19.5347 104.444 19.768 103.772 19.936C103.1 20.0853 102.428 20.1693 101.756 20.188C101.065 20.2067 100.477 20.0293 99.992 19.656C99.5253 19.264 99.292 18.7507 99.292 18.116C99.292 17.4627 99.4507 16.9587 99.768 16.604C100.104 16.2493 100.552 16.0253 101.112 15.932C102.4 15.7267 103.408 15.232 104.136 14.448C104.883 13.6453 105.256 12.628 105.256 11.396V11.004H101.476C101.14 11.004 100.841 10.9387 100.58 10.808C100.337 10.6587 100.132 10.4813 99.964 10.276C99.796 10.0707 99.6653 9.83733 99.572 9.576C99.4787 9.31467 99.432 9.05333 99.432 8.792C99.432 8.54933 99.4693 8.29733 99.544 8.036C99.6187 7.756 99.74 7.504 99.908 7.28C100.076 7.056 100.291 6.87867 100.552 6.748C100.813 6.59867 101.121 6.524 101.476 6.524H105.172V6.272C105.172 5.432 105.405 4.816 105.872 4.424C106.339 4.01333 107.011 3.808 107.888 3.808C108.765 3.808 109.437 4.01333 109.904 4.424C110.389 4.816 110.632 5.432 110.632 6.272V6.524H114.44C114.795 6.524 115.103 6.59867 115.364 6.748C115.625 6.87867 115.84 7.056 116.008 7.28C116.176 7.504 116.297 7.756 116.372 8.036C116.447 8.29733 116.484 8.54933 116.484 8.792C116.484 9.05333 116.437 9.31467 116.344 9.576C116.251 9.83733 116.12 10.0707 115.952 10.276C115.784 10.4813 115.569 10.6587 115.308 10.808C115.065 10.9387 114.776 11.004 114.44 11.004H110.492ZM105.256 30.128C104.472 30.128 103.819 30.0533 103.296 29.904C102.792 29.7547 102.391 29.5213 102.092 29.204C101.793 28.8867 101.579 28.4667 101.448 27.944C101.336 27.4213 101.28 26.7867 101.28 26.04V23.968C101.28 23.016 101.56 22.3347 102.12 21.924C102.699 21.5133 103.38 21.308 104.164 21.308C104.948 21.308 105.611 21.5133 106.152 21.924C106.693 22.3347 106.964 23.016 106.964 23.968V25.088C106.964 25.4053 107.011 25.6013 107.104 25.676C107.197 25.7507 107.403 25.788 107.72 25.788H122.924C123.783 25.788 124.389 26.012 124.744 26.46C125.099 26.8893 125.276 27.384 125.276 27.944C125.276 28.5227 125.089 29.0267 124.716 29.456C124.361 29.904 123.764 30.128 122.924 30.128H105.256ZM118.892 6.608C118.892 5.69333 119.172 5.00267 119.732 4.536C120.311 4.06933 120.973 3.836 121.72 3.836C122.075 3.836 122.42 3.90133 122.756 4.032C123.111 4.144 123.419 4.32133 123.68 4.564C123.941 4.788 124.147 5.07733 124.296 5.432C124.464 5.768 124.548 6.16 124.548 6.608V23.772H118.892V6.608ZM144.456 22.596V30.268H138.744V22.596H130.848C130.419 22.596 130.055 22.5307 129.756 22.4C129.476 22.2693 129.233 22.092 129.028 21.868C128.841 21.644 128.701 21.392 128.608 21.112C128.533 20.832 128.496 20.552 128.496 20.272C128.496 19.992 128.533 19.712 128.608 19.432C128.701 19.152 128.841 18.9 129.028 18.676C129.215 18.452 129.457 18.2747 129.756 18.144C130.055 17.9947 130.419 17.92 130.848 17.92H146.472C146.901 17.0613 147.228 16.0533 147.452 14.896C147.695 13.7387 147.816 12.3293 147.816 10.668V9.996C147.816 9.79067 147.751 9.62267 147.62 9.492C147.508 9.36133 147.34 9.296 147.116 9.296H131.884C131.455 9.296 131.081 9.23067 130.764 9.1C130.465 8.95067 130.213 8.764 130.008 8.54C129.821 8.29733 129.672 8.036 129.56 7.756C129.467 7.45733 129.42 7.168 129.42 6.888C129.42 6.608 129.467 6.328 129.56 6.048C129.653 5.768 129.803 5.516 130.008 5.292C130.213 5.04933 130.465 4.86267 130.764 4.732C131.081 4.58267 131.455 4.508 131.884 4.508H148.992C149.813 4.508 150.495 4.592 151.036 4.76C151.596 4.90933 152.044 5.152 152.38 5.488C152.716 5.80533 152.949 6.216 153.08 6.72C153.229 7.224 153.304 7.82133 153.304 8.512V10.696C153.304 12.152 153.201 13.4773 152.996 14.672C152.791 15.8667 152.501 16.9493 152.128 17.92H152.352C152.781 17.92 153.145 17.9947 153.444 18.144C153.743 18.2747 153.985 18.452 154.172 18.676C154.359 18.9 154.489 19.152 154.564 19.432C154.657 19.712 154.704 19.992 154.704 20.272C154.704 20.552 154.657 20.832 154.564 21.112C154.489 21.392 154.349 21.644 154.144 21.868C153.957 22.092 153.715 22.2693 153.416 22.4C153.117 22.5307 152.763 22.596 152.352 22.596H144.456Z" fill="#45BA66"/>
</svg>
